# xmcd
#
# Track frame offsets: 
#        150
#        12886
#        28257
#        39802
#        51662
#        62948
#        76635
#        88707
#        101782
#        115256
#        128302
#        139337
#        153538
#        166120
#        179216
#        194517
#        207679
#        219535
#        230423
#        243547
#
# Disc length: 3399 seconds
#
# Revision: 8
# Processed by: cddbd v1.5.2PL0 Copyright (c) Steve Scherf et al.
# Submitted via: ExactAudioCopyFreeDBPlugin 1.0
#
DISCID=220d4514
DTITLE=Various Artist - A Cellar Full of Motown
DYEAR=2002
DGENRE=Soul
TTITLE0=Barbara McNair - Baby a Go-Go
TTITLE1=Brenda Holloway - All Your Love
TTITLE2=Earl Van Dyke (aka The Funk Brothers) - He Was Really Sayin' S
TTITLE2=omethin'
TTITLE3=The Contours - Danger, Heartbreak Dead Ahead
TTITLE4=Chris Clark - Do I Love You (Indeed I Do) (alternative mix)
TTITLE5=The Contours - Baby Hit and Run (alternative vocal)
TTITLE6=Brenda Holloway - How Can I
TTITLE7=The Contours - I Like Everything About You
TTITLE8=Tammi Terrell - All I Do is Think About You
TTITLE9=Jimmy Ruffin - Lucky Lucky Me
TTITLE10=Jimmy Ruffin - On the Avenue (In the Neighborhood)
TTITLE11=Brenda Holloway - My World is Crumbling
TTITLE12=The Marvelettes - Poor Little Rich Girl
TTITLE13=Marv Johnson - Save My Love for a Rainy Day
TTITLE14=The Funk Brothers - Tell Me It's Just a Rumor Baby (instrumen
TTITLE14=tal)
TTITLE15=Gladys Knight and The Pips - If You Ever Get Your Hands on Love
TTITLE16=Stevie Wonder - Are You Sure Love is the Name of This Game
TTITLE17=Carolyn Crawford - Until You Came Along
TTITLE18=Sammy Ward - Before It's Over
TTITLE19=The Velvelettes - Long Gone Lover
EXTD=
EXTT0=
EXTT1=
EXTT2=
EXTT3=
EXTT4=
EXTT5=
EXTT6=
EXTT7=
EXTT8=
EXTT9=
EXTT10=
EXTT11=
EXTT12=
EXTT13=
EXTT14=
EXTT15=
EXTT16=
EXTT17=
EXTT18=
EXTT19=
PLAYORDER=
